<svg width="462" height="113" viewBox="0 0 462 113" fill="none" xmlns="http://www.w3.org/2000/svg">
<g filter="url(#filter0_d_1_11112)">
<path d="M129.578 28.2524V40.9424H128.12V35.1284H120.524V40.9424H119.066V28.2524H120.524V33.8684H128.12V28.2524H129.578ZM139.835 36.7844H133.427C133.475 37.8044 133.751 38.5784 134.255 39.1064C134.759 39.6224 135.473 39.8804 136.397 39.8804C137.417 39.8804 138.353 39.5324 139.205 38.8364L139.691 39.8984C139.307 40.2584 138.815 40.5464 138.215 40.7624C137.615 40.9664 137.003 41.0684 136.379 41.0684C135.011 41.0684 133.931 40.6664 133.139 39.8624C132.359 39.0584 131.969 37.9484 131.969 36.5324C131.969 35.6324 132.143 34.8404 132.491 34.1564C132.839 33.4604 133.325 32.9204 133.949 32.5364C134.585 32.1524 135.305 31.9604 136.109 31.9604C137.273 31.9604 138.185 32.3444 138.845 33.1124C139.505 33.8684 139.835 34.9124 139.835 36.2444V36.7844ZM136.127 33.0944C135.359 33.0944 134.741 33.3344 134.273 33.8144C133.817 34.2944 133.547 34.9724 133.463 35.8484H138.557C138.533 34.9604 138.311 34.2824 137.891 33.8144C137.471 33.3344 136.883 33.0944 136.127 33.0944ZM141.983 28.2524H143.441V40.9424H141.983V28.2524ZM150.576 31.9604C151.344 31.9604 152.022 32.1524 152.61 32.5364C153.198 32.9204 153.654 33.4604 153.978 34.1564C154.302 34.8404 154.464 35.6384 154.464 36.5504C154.464 37.4624 154.302 38.2604 153.978 38.9444C153.654 39.6164 153.198 40.1384 152.61 40.5104C152.034 40.8824 151.356 41.0684 150.576 41.0684C149.892 41.0684 149.292 40.9184 148.776 40.6184C148.272 40.3184 147.888 39.8924 147.624 39.3404V44.1824H146.166V32.1764H147.624V33.6884C147.888 33.1364 148.272 32.7104 148.776 32.4104C149.292 32.1104 149.892 31.9604 150.576 31.9604ZM150.288 39.8624C151.14 39.8624 151.8 39.5744 152.268 38.9984C152.736 38.4224 152.97 37.6064 152.97 36.5504C152.97 35.4944 152.736 34.6724 152.268 34.0844C151.8 33.4844 151.14 33.1844 150.288 33.1844C149.436 33.1844 148.776 33.4724 148.308 34.0484C147.852 34.6244 147.624 35.4464 147.624 36.5144C147.624 37.5824 147.852 38.4104 148.308 38.9984C148.776 39.5744 149.436 39.8624 150.288 39.8624ZM164.254 41.0684C162.778 41.0684 161.608 40.6904 160.744 39.9344L161.23 38.8544C161.698 39.2264 162.172 39.4964 162.652 39.6644C163.144 39.8204 163.696 39.8984 164.308 39.8984C164.956 39.8984 165.448 39.7904 165.784 39.5744C166.132 39.3464 166.306 39.0224 166.306 38.6024C166.306 38.2544 166.192 37.9784 165.964 37.7744C165.736 37.5704 165.358 37.4084 164.83 37.2884L163.354 36.9464C162.61 36.7784 162.04 36.4904 161.644 36.0824C161.248 35.6744 161.05 35.1704 161.05 34.5704C161.05 33.7904 161.356 33.1604 161.968 32.6804C162.58 32.2004 163.396 31.9604 164.416 31.9604C165.028 31.9604 165.61 32.0624 166.162 32.2664C166.714 32.4584 167.176 32.7404 167.548 33.1124L167.062 34.1744C166.258 33.4904 165.376 33.1484 164.416 33.1484C163.804 33.1484 163.324 33.2684 162.976 33.5084C162.64 33.7364 162.472 34.0604 162.472 34.4804C162.472 34.8284 162.574 35.1104 162.778 35.3264C162.994 35.5304 163.336 35.6864 163.804 35.7944L165.298 36.1544C166.114 36.3464 166.72 36.6404 167.116 37.0364C167.512 37.4204 167.71 37.9244 167.71 38.5484C167.71 39.3164 167.398 39.9284 166.774 40.3844C166.162 40.8404 165.322 41.0684 164.254 41.0684ZM173.496 31.9604C174.612 31.9604 175.44 32.2484 175.98 32.8244C176.532 33.3884 176.808 34.2524 176.808 35.4164V40.9424H175.386V39.4484C175.158 39.9644 174.81 40.3664 174.342 40.6544C173.874 40.9304 173.334 41.0684 172.722 41.0684C172.158 41.0684 171.636 40.9544 171.156 40.7264C170.688 40.4984 170.316 40.1804 170.04 39.7724C169.764 39.3644 169.626 38.9144 169.626 38.4224C169.626 37.7624 169.794 37.2524 170.13 36.8924C170.466 36.5204 171.018 36.2564 171.786 36.1004C172.554 35.9324 173.622 35.8484 174.99 35.8484H175.386V35.2544C175.386 34.5224 175.236 33.9944 174.936 33.6704C174.636 33.3344 174.15 33.1664 173.478 33.1664C172.47 33.1664 171.468 33.4784 170.472 34.1024L169.986 33.0404C170.442 32.7164 170.988 32.4584 171.624 32.2664C172.272 32.0624 172.896 31.9604 173.496 31.9604ZM172.92 39.9164C173.64 39.9164 174.228 39.6764 174.684 39.1964C175.152 38.7044 175.386 38.0744 175.386 37.3064V36.7844H175.062C174.006 36.7844 173.202 36.8324 172.65 36.9284C172.098 37.0124 171.702 37.1624 171.462 37.3784C171.234 37.5824 171.12 37.8884 171.12 38.2964C171.12 38.7644 171.288 39.1544 171.624 39.4664C171.972 39.7664 172.404 39.9164 172.92 39.9164ZM187.217 32.1944L183.437 40.9424H182.069L178.307 32.1944H179.855L182.789 39.3584L185.759 32.1944H187.217ZM195.962 36.7844H189.554C189.602 37.8044 189.878 38.5784 190.382 39.1064C190.886 39.6224 191.6 39.8804 192.524 39.8804C193.544 39.8804 194.48 39.5324 195.332 38.8364L195.818 39.8984C195.434 40.2584 194.942 40.5464 194.342 40.7624C193.742 40.9664 193.13 41.0684 192.506 41.0684C191.138 41.0684 190.058 40.6664 189.266 39.8624C188.486 39.0584 188.096 37.9484 188.096 36.5324C188.096 35.6324 188.27 34.8404 188.618 34.1564C188.966 33.4604 189.452 32.9204 190.076 32.5364C190.712 32.1524 191.432 31.9604 192.236 31.9604C193.4 31.9604 194.312 32.3444 194.972 33.1124C195.632 33.8684 195.962 34.9124 195.962 36.2444V36.7844ZM192.254 33.0944C191.486 33.0944 190.868 33.3344 190.4 33.8144C189.944 34.2944 189.674 34.9724 189.59 35.8484H194.684C194.66 34.9604 194.438 34.2824 194.018 33.8144C193.598 33.3344 193.01 33.0944 192.254 33.0944ZM210.796 39.7004V40.9424H203.74V39.7004H206.53V30.0884L204.298 31.4924L203.614 30.3584L206.944 28.2524H208.006V39.7004H210.796ZM217.593 41.0864C216.141 41.0864 215.037 40.5344 214.281 39.4304C213.525 38.3264 213.147 36.7184 213.147 34.6064C213.147 32.4824 213.525 30.8684 214.281 29.7644C215.037 28.6604 216.141 28.1084 217.593 28.1084C219.045 28.1084 220.149 28.6604 220.905 29.7644C221.661 30.8564 222.039 32.4644 222.039 34.5884C222.039 36.7124 221.661 38.3264 220.905 39.4304C220.149 40.5344 219.045 41.0864 217.593 41.0864ZM217.593 39.8444C218.601 39.8444 219.345 39.4184 219.825 38.5664C220.305 37.7144 220.545 36.3884 220.545 34.5884C220.545 32.7764 220.305 31.4564 219.825 30.6284C219.357 29.7884 218.613 29.3684 217.593 29.3684C216.585 29.3684 215.841 29.7884 215.361 30.6284C214.881 31.4684 214.641 32.7884 214.641 34.5884C214.641 36.3884 214.881 37.7144 215.361 38.5664C215.841 39.4184 216.585 39.8444 217.593 39.8444ZM228.923 35.5424H233.963V36.7484H228.923V35.5424ZM249.616 39.7004V40.9424H241.444V39.8264L245.89 34.9304C246.49 34.2584 246.922 33.6584 247.186 33.1304C247.462 32.5904 247.6 32.0504 247.6 31.5104C247.6 30.8144 247.396 30.2804 246.988 29.9084C246.58 29.5364 246.004 29.3504 245.26 29.3504C244.036 29.3504 242.836 29.8364 241.66 30.8084L241.102 29.6744C241.606 29.1944 242.236 28.8164 242.992 28.5404C243.76 28.2524 244.528 28.1084 245.296 28.1084C246.46 28.1084 247.378 28.4084 248.05 29.0084C248.734 29.6084 249.076 30.4184 249.076 31.4384C249.076 32.1704 248.908 32.8724 248.572 33.5444C248.248 34.2164 247.708 34.9664 246.952 35.7944L243.352 39.7004H249.616ZM256.107 41.0864C254.655 41.0864 253.551 40.5344 252.795 39.4304C252.039 38.3264 251.661 36.7184 251.661 34.6064C251.661 32.4824 252.039 30.8684 252.795 29.7644C253.551 28.6604 254.655 28.1084 256.107 28.1084C257.559 28.1084 258.663 28.6604 259.419 29.7644C260.175 30.8564 260.553 32.4644 260.553 34.5884C260.553 36.7124 260.175 38.3264 259.419 39.4304C258.663 40.5344 257.559 41.0864 256.107 41.0864ZM256.107 39.8444C257.115 39.8444 257.859 39.4184 258.339 38.5664C258.819 37.7144 259.059 36.3884 259.059 34.5884C259.059 32.7764 258.819 31.4564 258.339 30.6284C257.871 29.7884 257.127 29.3684 256.107 29.3684C255.099 29.3684 254.355 29.7884 253.875 30.6284C253.395 31.4684 253.155 32.7884 253.155 34.5884C253.155 36.3884 253.395 37.7144 253.875 38.5664C254.355 39.4184 255.099 39.8444 256.107 39.8444ZM265.586 40.7804L273.092 27.8024L274.154 28.4144L266.648 41.3924L265.586 40.7804ZM265.55 35.8664C264.59 35.8664 263.84 35.5424 263.3 34.8944C262.76 34.2344 262.49 33.2624 262.49 31.9784C262.49 30.7064 262.76 29.7464 263.3 29.0984C263.84 28.4384 264.59 28.1084 265.55 28.1084C266.51 28.1084 267.26 28.4384 267.8 29.0984C268.34 29.7464 268.61 30.7064 268.61 31.9784C268.61 33.2624 268.34 34.2344 267.8 34.8944C267.26 35.5424 266.51 35.8664 265.55 35.8664ZM265.55 34.8224C266.138 34.8224 266.57 34.5944 266.846 34.1384C267.134 33.6824 267.278 32.9624 267.278 31.9784C267.278 31.0064 267.134 30.2924 266.846 29.8364C266.57 29.3804 266.138 29.1524 265.55 29.1524C264.962 29.1524 264.524 29.3804 264.236 29.8364C263.948 30.2924 263.804 31.0064 263.804 31.9784C263.804 32.9624 263.948 33.6824 264.236 34.1384C264.524 34.5944 264.962 34.8224 265.55 34.8224ZM274.19 41.0684C273.23 41.0684 272.48 40.7444 271.94 40.0964C271.4 39.4364 271.13 38.4644 271.13 37.1804C271.13 35.9084 271.4 34.9484 271.94 34.3004C272.48 33.6404 273.23 33.3104 274.19 33.3104C275.162 33.3104 275.912 33.6344 276.44 34.2824C276.98 34.9304 277.25 35.8964 277.25 37.1804C277.25 38.4644 276.98 39.4364 276.44 40.0964C275.912 40.7444 275.162 41.0684 274.19 41.0684ZM274.19 40.0244C274.79 40.0244 275.228 39.8024 275.504 39.3584C275.792 38.9024 275.936 38.1764 275.936 37.1804C275.936 36.2084 275.792 35.4944 275.504 35.0384C275.216 34.5824 274.778 34.3544 274.19 34.3544C273.602 34.3544 273.164 34.5824 272.876 35.0384C272.6 35.4944 272.462 36.2084 272.462 37.1804C272.462 38.1644 272.6 38.8844 272.876 39.3404C273.164 39.7964 273.602 40.0244 274.19 40.0244ZM287.861 41.0684C287.033 41.0684 286.301 40.8824 285.665 40.5104C285.041 40.1384 284.555 39.6104 284.207 38.9264C283.871 38.2304 283.703 37.4264 283.703 36.5144C283.703 35.6024 283.871 34.8044 284.207 34.1204C284.555 33.4244 285.041 32.8904 285.665 32.5184C286.301 32.1464 287.033 31.9604 287.861 31.9604C288.689 31.9604 289.421 32.1464 290.057 32.5184C290.693 32.8904 291.179 33.4244 291.515 34.1204C291.863 34.8044 292.037 35.6024 292.037 36.5144C292.037 37.4264 291.863 38.2304 291.515 38.9264C291.179 39.6104 290.693 40.1384 290.057 40.5104C289.421 40.8824 288.689 41.0684 287.861 41.0684ZM287.861 39.8624C288.725 39.8624 289.385 39.5804 289.841 39.0164C290.309 38.4404 290.543 37.6064 290.543 36.5144C290.543 35.4464 290.309 34.6244 289.841 34.0484C289.373 33.4604 288.713 33.1664 287.861 33.1664C287.009 33.1664 286.349 33.4604 285.881 34.0484C285.413 34.6244 285.179 35.4464 285.179 36.5144C285.179 37.5944 285.407 38.4224 285.863 38.9984C286.331 39.5744 286.997 39.8624 287.861 39.8624ZM296.136 32.1764H298.62V33.3284H296.136V40.9424H294.678V33.3284H292.968V32.1764H294.678V31.8884C294.678 30.7244 294.966 29.8424 295.542 29.2424C296.13 28.6424 297.03 28.3064 298.242 28.2344L298.962 28.1984L299.07 29.3324L298.242 29.3864C297.51 29.4344 296.976 29.6444 296.64 30.0164C296.304 30.3764 296.136 30.9344 296.136 31.6904V32.1764ZM308.591 39.8984C308.855 39.8984 309.119 39.8804 309.383 39.8444L309.311 40.9964C309.035 41.0444 308.735 41.0684 308.411 41.0684C307.355 41.0684 306.557 40.7924 306.017 40.2404C305.489 39.6884 305.225 38.9204 305.225 37.9364V33.3284H303.515V32.1764H305.225V29.5124H306.683V32.1764H309.167V33.3284H306.683V37.8284C306.683 39.2084 307.319 39.8984 308.591 39.8984ZM315.266 31.9604C317.366 31.9604 318.416 33.1184 318.416 35.4344V40.9424H316.958V35.5244C316.958 34.7084 316.796 34.1144 316.472 33.7424C316.16 33.3704 315.656 33.1844 314.96 33.1844C314.156 33.1844 313.514 33.4304 313.034 33.9224C312.554 34.4144 312.314 35.0804 312.314 35.9204V40.9424H310.856V28.2524H312.314V33.5804C312.602 33.0524 312.998 32.6504 313.502 32.3744C314.018 32.0984 314.606 31.9604 315.266 31.9604ZM328.43 36.7844H322.022C322.07 37.8044 322.346 38.5784 322.85 39.1064C323.354 39.6224 324.068 39.8804 324.992 39.8804C326.012 39.8804 326.948 39.5324 327.8 38.8364L328.286 39.8984C327.902 40.2584 327.41 40.5464 326.81 40.7624C326.21 40.9664 325.598 41.0684 324.974 41.0684C323.606 41.0684 322.526 40.6664 321.734 39.8624C320.954 39.0584 320.564 37.9484 320.564 36.5324C320.564 35.6324 320.738 34.8404 321.086 34.1564C321.434 33.4604 321.92 32.9204 322.544 32.5364C323.18 32.1524 323.9 31.9604 324.704 31.9604C325.868 31.9604 326.78 32.3444 327.44 33.1124C328.1 33.8684 328.43 34.9124 328.43 36.2444V36.7844ZM324.722 33.0944C323.954 33.0944 323.336 33.3344 322.868 33.8144C322.412 34.2944 322.142 34.9724 322.058 35.8484H327.152C327.128 34.9604 326.906 34.2824 326.486 33.8144C326.066 33.3344 325.478 33.0944 324.722 33.0944ZM122.558 67.0684C121.694 67.0684 120.944 66.8824 120.308 66.5104C119.672 66.1384 119.18 65.6164 118.832 64.9444C118.496 64.2604 118.328 63.4624 118.328 62.5504C118.328 61.6384 118.502 60.8404 118.85 60.1564C119.21 59.4604 119.708 58.9204 120.344 58.5364C120.992 58.1524 121.748 57.9604 122.612 57.9604C123.2 57.9604 123.776 58.0684 124.34 58.2844C124.904 58.4884 125.36 58.7644 125.708 59.1124L125.222 60.1924C124.394 59.5204 123.554 59.1844 122.702 59.1844C121.802 59.1844 121.1 59.4784 120.596 60.0664C120.092 60.6544 119.84 61.4824 119.84 62.5504C119.84 63.6064 120.092 64.4224 120.596 64.9984C121.1 65.5744 121.802 65.8624 122.702 65.8624C123.554 65.8624 124.394 65.5264 125.222 64.8544L125.708 65.9344C125.336 66.2824 124.868 66.5584 124.304 66.7624C123.74 66.9664 123.158 67.0684 122.558 67.0684ZM131.099 67.0684C130.271 67.0684 129.539 66.8824 128.903 66.5104C128.279 66.1384 127.793 65.6104 127.445 64.9264C127.109 64.2304 126.941 63.4264 126.941 62.5144C126.941 61.6024 127.109 60.8044 127.445 60.1204C127.793 59.4244 128.279 58.8904 128.903 58.5184C129.539 58.1464 130.271 57.9604 131.099 57.9604C131.927 57.9604 132.659 58.1464 133.295 58.5184C133.931 58.8904 134.417 59.4244 134.753 60.1204C135.101 60.8044 135.275 61.6024 135.275 62.5144C135.275 63.4264 135.101 64.2304 134.753 64.9264C134.417 65.6104 133.931 66.1384 133.295 66.5104C132.659 66.8824 131.927 67.0684 131.099 67.0684ZM131.099 65.8624C131.963 65.8624 132.623 65.5804 133.079 65.0164C133.547 64.4404 133.781 63.6064 133.781 62.5144C133.781 61.4464 133.547 60.6244 133.079 60.0484C132.611 59.4604 131.951 59.1664 131.099 59.1664C130.247 59.1664 129.587 59.4604 129.119 60.0484C128.651 60.6244 128.417 61.4464 128.417 62.5144C128.417 63.5944 128.645 64.4224 129.101 64.9984C129.569 65.5744 130.235 65.8624 131.099 65.8624ZM140.418 67.0684C138.942 67.0684 137.772 66.6904 136.908 65.9344L137.394 64.8544C137.862 65.2264 138.336 65.4964 138.816 65.6644C139.308 65.8204 139.86 65.8984 140.472 65.8984C141.12 65.8984 141.612 65.7904 141.948 65.5744C142.296 65.3464 142.47 65.0224 142.47 64.6024C142.47 64.2544 142.356 63.9784 142.128 63.7744C141.9 63.5704 141.522 63.4084 140.994 63.2884L139.518 62.9464C138.774 62.7784 138.204 62.4904 137.808 62.0824C137.412 61.6744 137.214 61.1704 137.214 60.5704C137.214 59.7904 137.52 59.1604 138.132 58.6804C138.744 58.2004 139.56 57.9604 140.58 57.9604C141.192 57.9604 141.774 58.0624 142.326 58.2664C142.878 58.4584 143.34 58.7404 143.712 59.1124L143.226 60.1744C142.422 59.4904 141.54 59.1484 140.58 59.1484C139.968 59.1484 139.488 59.2684 139.14 59.5084C138.804 59.7364 138.636 60.0604 138.636 60.4804C138.636 60.8284 138.738 61.1104 138.942 61.3264C139.158 61.5304 139.5 61.6864 139.968 61.7944L141.462 62.1544C142.278 62.3464 142.884 62.6404 143.28 63.0364C143.676 63.4204 143.874 63.9244 143.874 64.5484C143.874 65.3164 143.562 65.9284 142.938 66.3844C142.326 66.8404 141.486 67.0684 140.418 67.0684ZM149.86 65.8984C150.124 65.8984 150.388 65.8804 150.652 65.8444L150.58 66.9964C150.304 67.0444 150.004 67.0684 149.68 67.0684C148.624 67.0684 147.826 66.7924 147.286 66.2404C146.758 65.6884 146.494 64.9204 146.494 63.9364V59.3284H144.784V58.1764H146.494V55.5124H147.952V58.1764H150.436V59.3284H147.952V63.8284C147.952 65.2084 148.588 65.8984 149.86 65.8984ZM160.402 67.0684C159.574 67.0684 158.842 66.8824 158.206 66.5104C157.582 66.1384 157.096 65.6104 156.748 64.9264C156.412 64.2304 156.244 63.4264 156.244 62.5144C156.244 61.6024 156.412 60.8044 156.748 60.1204C157.096 59.4244 157.582 58.8904 158.206 58.5184C158.842 58.1464 159.574 57.9604 160.402 57.9604C161.23 57.9604 161.962 58.1464 162.598 58.5184C163.234 58.8904 163.72 59.4244 164.056 60.1204C164.404 60.8044 164.578 61.6024 164.578 62.5144C164.578 63.4264 164.404 64.2304 164.056 64.9264C163.72 65.6104 163.234 66.1384 162.598 66.5104C161.962 66.8824 161.23 67.0684 160.402 67.0684ZM160.402 65.8624C161.266 65.8624 161.926 65.5804 162.382 65.0164C162.85 64.4404 163.084 63.6064 163.084 62.5144C163.084 61.4464 162.85 60.6244 162.382 60.0484C161.914 59.4604 161.254 59.1664 160.402 59.1664C159.55 59.1664 158.89 59.4604 158.422 60.0484C157.954 60.6244 157.72 61.4464 157.72 62.5144C157.72 63.5944 157.948 64.4224 158.404 64.9984C158.872 65.5744 159.538 65.8624 160.402 65.8624ZM168.677 58.1764H171.161V59.3284H168.677V66.9424H167.219V59.3284H165.509V58.1764H167.219V57.8884C167.219 56.7244 167.507 55.8424 168.083 55.2424C168.671 54.6424 169.571 54.3064 170.783 54.2344L171.503 54.1984L171.611 55.3324L170.783 55.3864C170.051 55.4344 169.517 55.6444 169.181 56.0164C168.845 56.3764 168.677 56.9344 168.677 57.6904V58.1764ZM187.036 57.9604C188.98 57.9604 189.952 59.1184 189.952 61.4344V66.9424H188.494V61.5064C188.494 60.7024 188.35 60.1144 188.062 59.7424C187.786 59.3704 187.336 59.1844 186.712 59.1844C185.98 59.1844 185.404 59.4304 184.984 59.9224C184.564 60.4144 184.354 61.0864 184.354 61.9384V66.9424H182.896V61.5064C182.896 60.6904 182.752 60.1024 182.464 59.7424C182.176 59.3704 181.72 59.1844 181.096 59.1844C180.364 59.1844 179.788 59.4304 179.368 59.9224C178.948 60.4144 178.738 61.0864 178.738 61.9384V66.9424H177.28V58.1764H178.72V59.5624C178.984 59.0464 179.35 58.6504 179.818 58.3744C180.286 58.0984 180.826 57.9604 181.438 57.9604C182.794 57.9604 183.688 58.5364 184.12 59.6884C184.372 59.1484 184.756 58.7284 185.272 58.4284C185.788 58.1164 186.376 57.9604 187.036 57.9604ZM196.172 57.9604C197.288 57.9604 198.116 58.2484 198.656 58.8244C199.208 59.3884 199.484 60.2524 199.484 61.4164V66.9424H198.062V65.4484C197.834 65.9644 197.486 66.3664 197.018 66.6544C196.55 66.9304 196.01 67.0684 195.398 67.0684C194.834 67.0684 194.312 66.9544 193.832 66.7264C193.364 66.4984 192.992 66.1804 192.716 65.7724C192.44 65.3644 192.302 64.9144 192.302 64.4224C192.302 63.7624 192.47 63.2524 192.806 62.8924C193.142 62.5204 193.694 62.2564 194.462 62.1004C195.23 61.9324 196.298 61.8484 197.666 61.8484H198.062V61.2544C198.062 60.5224 197.912 59.9944 197.612 59.6704C197.312 59.3344 196.826 59.1664 196.154 59.1664C195.146 59.1664 194.144 59.4784 193.148 60.1024L192.662 59.0404C193.118 58.7164 193.664 58.4584 194.3 58.2664C194.948 58.0624 195.572 57.9604 196.172 57.9604ZM195.596 65.9164C196.316 65.9164 196.904 65.6764 197.36 65.1964C197.828 64.7044 198.062 64.0744 198.062 63.3064V62.7844H197.738C196.682 62.7844 195.878 62.8324 195.326 62.9284C194.774 63.0124 194.378 63.1624 194.138 63.3784C193.91 63.5824 193.796 63.8884 193.796 64.2964C193.796 64.7644 193.964 65.1544 194.3 65.4664C194.648 65.7664 195.08 65.9164 195.596 65.9164ZM206.005 65.8984C206.269 65.8984 206.533 65.8804 206.797 65.8444L206.725 66.9964C206.449 67.0444 206.149 67.0684 205.825 67.0684C204.769 67.0684 203.971 66.7924 203.431 66.2404C202.903 65.6884 202.639 64.9204 202.639 63.9364V59.3284H200.929V58.1764H202.639V55.5124H204.097V58.1764H206.581V59.3284H204.097V63.8284C204.097 65.2084 204.733 65.8984 206.005 65.8984ZM215.614 62.7844H209.206C209.254 63.8044 209.53 64.5784 210.034 65.1064C210.538 65.6224 211.252 65.8804 212.176 65.8804C213.196 65.8804 214.132 65.5324 214.984 64.8364L215.47 65.8984C215.086 66.2584 214.594 66.5464 213.994 66.7624C213.394 66.9664 212.782 67.0684 212.158 67.0684C210.79 67.0684 209.71 66.6664 208.918 65.8624C208.138 65.0584 207.748 63.9484 207.748 62.5324C207.748 61.6324 207.922 60.8404 208.27 60.1564C208.618 59.4604 209.104 58.9204 209.728 58.5364C210.364 58.1524 211.084 57.9604 211.888 57.9604C213.052 57.9604 213.964 58.3444 214.624 59.1124C215.284 59.8684 215.614 60.9124 215.614 62.2444V62.7844ZM211.906 59.0944C211.138 59.0944 210.52 59.3344 210.052 59.8144C209.596 60.2944 209.326 60.9724 209.242 61.8484H214.336C214.312 60.9604 214.09 60.2824 213.67 59.8144C213.25 59.3344 212.662 59.0944 211.906 59.0944ZM222.73 59.2204L221.776 59.3104C220.876 59.3944 220.222 59.6764 219.814 60.1564C219.418 60.6364 219.22 61.2304 219.22 61.9384V66.9424H217.762V58.1764H219.184V59.7064C219.676 58.6864 220.642 58.1164 222.082 57.9964L222.604 57.9604L222.73 59.2204ZM224.108 58.1764H225.566V66.9424H224.108V58.1764ZM225.728 54.3784V56.0164H223.964V54.3784H225.728ZM231.855 57.9604C232.971 57.9604 233.799 58.2484 234.339 58.8244C234.891 59.3884 235.167 60.2524 235.167 61.4164V66.9424H233.745V65.4484C233.517 65.9644 233.169 66.3664 232.701 66.6544C232.233 66.9304 231.693 67.0684 231.081 67.0684C230.517 67.0684 229.995 66.9544 229.515 66.7264C229.047 66.4984 228.675 66.1804 228.399 65.7724C228.123 65.3644 227.985 64.9144 227.985 64.4224C227.985 63.7624 228.153 63.2524 228.489 62.8924C228.825 62.5204 229.377 62.2564 230.145 62.1004C230.913 61.9324 231.981 61.8484 233.349 61.8484H233.745V61.2544C233.745 60.5224 233.595 59.9944 233.295 59.6704C232.995 59.3344 232.509 59.1664 231.837 59.1664C230.829 59.1664 229.827 59.4784 228.831 60.1024L228.345 59.0404C228.801 58.7164 229.347 58.4584 229.983 58.2664C230.631 58.0624 231.255 57.9604 231.855 57.9604ZM231.279 65.9164C231.999 65.9164 232.587 65.6764 233.043 65.1964C233.511 64.7044 233.745 64.0744 233.745 63.3064V62.7844H233.421C232.365 62.7844 231.561 62.8324 231.009 62.9284C230.457 63.0124 230.061 63.1624 229.821 63.3784C229.593 63.5824 229.479 63.8884 229.479 64.2964C229.479 64.7644 229.647 65.1544 229.983 65.4664C230.331 65.7664 230.763 65.9164 231.279 65.9164ZM237.836 54.2524H239.294V66.9424H237.836V54.2524ZM244.99 67.0684C243.514 67.0684 242.344 66.6904 241.48 65.9344L241.966 64.8544C242.434 65.2264 242.908 65.4964 243.388 65.6644C243.88 65.8204 244.432 65.8984 245.044 65.8984C245.692 65.8984 246.184 65.7904 246.52 65.5744C246.868 65.3464 247.042 65.0224 247.042 64.6024C247.042 64.2544 246.928 63.9784 246.7 63.7744C246.472 63.5704 246.094 63.4084 245.566 63.2884L244.09 62.9464C243.346 62.7784 242.776 62.4904 242.38 62.0824C241.984 61.6744 241.786 61.1704 241.786 60.5704C241.786 59.7904 242.092 59.1604 242.704 58.6804C243.316 58.2004 244.132 57.9604 245.152 57.9604C245.764 57.9604 246.346 58.0624 246.898 58.2664C247.45 58.4584 247.912 58.7404 248.284 59.1124L247.798 60.1744C246.994 59.4904 246.112 59.1484 245.152 59.1484C244.54 59.1484 244.06 59.2684 243.712 59.5084C243.376 59.7364 243.208 60.0604 243.208 60.4804C243.208 60.8284 243.31 61.1104 243.514 61.3264C243.73 61.5304 244.072 61.6864 244.54 61.7944L246.034 62.1544C246.85 62.3464 247.456 62.6404 247.852 63.0364C248.248 63.4204 248.446 63.9244 248.446 64.5484C248.446 65.3164 248.134 65.9284 247.51 66.3844C246.898 66.8404 246.058 67.0684 244.99 67.0684Z" fill="#E3B873"/>
</g>
<g filter="url(#filter1_d_1_11112)">
<circle cx="56.5" cy="46.4424" r="36" fill="#E3B873"/>
</g>
<path d="M56.8396 53.7206C56.4614 53.7206 56.1526 54.0199 56.1526 54.3917V55.7163C56.1526 56.0881 56.4614 56.3873 56.8396 56.3873C57.2178 56.3873 57.5265 56.0881 57.5265 55.7163V54.3917C57.5265 54.0199 57.2178 53.7206 56.8396 53.7206Z" fill="white" stroke="white" stroke-width="0.1"/>
<path d="M73.5581 44.4428L73.5581 44.4427C73.1069 42.2849 72.0951 40.2508 70.6321 38.5602C69.2237 36.9326 67.4214 35.6513 65.4118 34.8437C65.0828 33.5077 64.3927 32.13 63.0386 31.0926C61.7205 30.0829 60.3931 29.8882 60.3338 29.8799L60.3338 29.8799C60.1374 29.8526 59.9377 29.9096 59.7872 30.0369C59.6366 30.1642 59.5498 30.3492 59.5498 30.5442V33.8478H57.3254C56.736 31.9337 54.9142 30.5357 52.7634 30.5357C50.5652 30.5357 48.7096 31.9956 48.1632 33.9747C45.0152 34.4005 42.1197 35.8912 39.9692 38.2047L40.0059 38.2387L39.9692 38.2047C37.7 40.6462 36.45 43.807 36.45 47.1048C36.45 54.4944 40.3839 60.5047 41.5891 62.1702C41.9705 62.6973 42.5945 63.0115 43.2582 63.0115H45.9692C47.0961 63.0115 48.015 62.1174 48.015 61.0156V60.214C48.6849 60.3117 49.3649 60.3618 50.0457 60.3618H56.1528V61.0156C56.1528 62.1174 57.0717 63.0115 58.1986 63.0115H61.1765C62.134 63.0115 62.9756 62.3491 63.1767 61.4341L63.4969 59.9776C67.673 58.976 71.0324 56.1195 72.6959 52.4129H75.1837C75.9359 52.4129 76.55 51.816 76.55 51.0795V45.78C76.55 45.4234 76.4075 45.0882 76.1493 44.8365C75.8912 44.5849 75.5483 44.4465 75.1838 44.4465H75.1837H75.1837H75.1837H75.1836H75.1836H75.1836H75.1835L73.5592 44.4467C73.5587 44.4454 73.5584 44.4441 73.5581 44.4428ZM75.1762 51.0293H75.1761V51.0708H73.2111C73.5469 50.0272 73.7538 48.9313 73.8138 47.802C73.8337 47.4307 73.5411 47.1162 73.1633 47.0971C72.7857 47.0784 72.4615 47.3611 72.4418 47.7324C72.1746 52.755 68.6861 57.0486 63.8218 58.4988L64.6936 54.5325C64.7736 54.1689 64.5358 53.8128 64.1656 53.7355C63.7961 53.658 63.4301 53.8876 63.3503 54.2508L61.8334 61.1523C61.7678 61.4509 61.4919 61.6694 61.1765 61.6694H58.1984C57.8268 61.6694 57.5266 61.3748 57.5266 61.0156V58.3658C57.5266 57.994 57.2178 57.6948 56.8396 57.6948C56.4614 57.6948 56.1527 57.994 56.1527 58.3658V59.0197H50.0455C49.3637 59.0197 48.6831 58.9637 48.0148 58.8549V54.3914C48.0148 54.0196 47.7061 53.7204 47.3279 53.7204C46.9497 53.7204 46.6409 54.0196 46.6409 54.3914V61.0156C46.6409 61.3749 46.3407 61.6695 45.9691 61.6695H43.2582C43.0355 61.6695 42.8366 61.5694 42.7111 61.3957L42.7111 61.3957C41.5641 59.8104 37.8239 54.0966 37.8239 47.1047C37.8239 44.1413 38.9469 41.301 40.9864 39.1068L40.9498 39.0728L40.9864 39.1068C42.8401 37.1124 45.3092 35.7982 48.0037 35.3561C48.0187 35.7441 48.0834 36.1276 48.195 36.4974H48.0074C47.6292 36.4974 47.3205 36.7966 47.3205 37.1684C47.3205 37.5402 47.6292 37.8395 48.0074 37.8395H57.5191C57.8974 37.8395 58.2061 37.5402 58.2061 37.1684C58.2061 36.7966 57.8974 36.4974 57.5191 36.4974H57.3315C57.4592 36.0749 57.5258 35.6344 57.5266 35.1897H59.5498V36.506C59.5498 36.8778 59.8585 37.177 60.2367 37.177C60.6149 37.177 60.9237 36.8778 60.9237 36.506V31.4319C61.5183 31.6611 62.343 32.1096 63.0288 32.9651C63.7404 33.8526 64.3056 35.182 64.3056 37.1685C64.3056 37.5403 64.6144 37.8395 64.9926 37.8395C65.3708 37.8395 65.6795 37.5403 65.6795 37.1685C65.6795 36.9306 65.6716 36.6808 65.6536 36.4229C67.1527 37.1478 68.4978 38.1728 69.5829 39.4267C70.8977 40.9462 71.8068 42.7736 72.212 44.7114C72.3426 45.3363 72.9049 45.7889 73.5487 45.7888L75.1762 45.7887V51.0293ZM52.7633 31.8778C54.6334 31.8778 56.1527 33.361 56.1527 35.1813C56.1527 35.6361 56.0552 36.0844 55.871 36.4975H49.6555C49.4714 36.0843 49.3737 35.6361 49.3737 35.1813C49.3737 33.3609 50.8931 31.8778 52.7633 31.8778Z" fill="white" stroke="white" stroke-width="0.1"/>
<path d="M64.4116 44.8828L64.4116 44.8828C64.815 43.8281 65.8808 43.1218 67.0621 43.1218C68.2433 43.1218 69.3093 43.8281 69.7125 44.8828C69.7125 44.8828 69.7125 44.8828 69.7125 44.8829L69.6658 44.9007C69.7887 45.222 69.6211 45.5797 69.2915 45.6995L64.4116 44.8828ZM64.4116 44.8828C64.2784 45.2312 64.4605 45.6175 64.8155 45.7465M64.4116 44.8828L64.8155 45.7465M64.8155 45.7465C65.17 45.8755 65.5657 45.7001 65.6986 45.3524L64.8155 45.7465ZM69.0691 45.7888C69.1488 45.7888 69.2297 45.7752 69.3086 45.7465L65.6986 45.3524C65.9011 44.8229 66.4479 44.4638 67.062 44.4638C67.6761 44.4638 68.223 44.8229 68.4255 45.3524C68.5289 45.6229 68.7913 45.7888 69.0691 45.7888Z" fill="white" stroke="white" stroke-width="0.1"/>
<path d="M55.7116 47.5181C55.0601 47.0763 54.2201 46.8056 53.4502 46.5933V43.5143C54.0451 43.5915 54.5484 43.7638 54.9047 43.9765C55.2758 44.1982 55.4733 44.4545 55.4733 44.683C55.4733 45.0548 55.7821 45.354 56.1603 45.354C56.5385 45.354 56.8472 45.0548 56.8472 44.683C56.8472 44.0274 56.4732 43.4413 55.8589 42.9981C55.254 42.5617 54.4127 42.2606 53.4502 42.1628V42.1368C53.4502 41.765 53.1414 41.4657 52.7632 41.4657C52.385 41.4657 52.0763 41.765 52.0763 42.1368V42.1628C51.1138 42.2606 50.2724 42.5617 49.6676 42.9981C49.0533 43.4413 48.6792 44.0274 48.6792 44.683C48.6792 45.6105 49.1508 46.2414 49.8149 46.6918C50.4663 47.1336 51.3064 47.4043 52.0763 47.6166V50.6955C51.4814 50.6184 50.9781 50.4461 50.6218 50.2333C50.2506 50.0117 50.0532 49.7554 50.0532 49.5269C50.0532 49.1551 49.7444 48.8559 49.3662 48.8559C48.988 48.8559 48.6792 49.1551 48.6792 49.5269C48.6792 50.1825 49.0533 50.7686 49.6676 51.2118C50.2724 51.6482 51.1138 51.9492 52.0763 52.0471V52.0731C52.0763 52.4449 52.385 52.7441 52.7632 52.7441C53.1414 52.7441 53.4502 52.4449 53.4502 52.0731V52.0471C54.4127 51.9492 55.254 51.6482 55.8589 51.2118C56.4732 50.7686 56.8472 50.1825 56.8472 49.5269C56.8472 48.5993 56.3757 47.9684 55.7116 47.5181ZM52.0763 43.5143V46.2105C51.3286 45.9782 50.8248 45.757 50.5067 45.5156C50.1827 45.2699 50.0532 45.0051 50.0532 44.683C50.0532 44.4545 50.2506 44.1982 50.6218 43.9765C50.9781 43.7638 51.4814 43.5915 52.0763 43.5143ZM54.9047 50.2334C54.5484 50.4462 54.045 50.6185 53.4502 50.6956V47.9994C54.1979 48.2317 54.7016 48.4529 55.0198 48.6943C55.3437 48.94 55.4733 49.2049 55.4733 49.527C55.4733 49.7554 55.2758 50.0117 54.9047 50.2334Z" fill="white" stroke="white" stroke-width="0.1"/>
<defs>
<filter id="filter0_d_1_11112" x="108.328" y="20.8024" width="230.102" height="59.266" filterUnits="userSpaceOnUse" color-interpolation-filters="sRGB">
<feFlood flood-opacity="0" result="BackgroundImageFix"/>
<feColorMatrix in="SourceAlpha" type="matrix" values="0 0 0 0 0 0 0 0 0 0 0 0 0 0 0 0 0 0 127 0" result="hardAlpha"/>
<feOffset dy="3"/>
<feGaussianBlur stdDeviation="5"/>
<feColorMatrix type="matrix" values="0 0 0 0 0.890196 0 0 0 0 0.721569 0 0 0 0 0.45098 0 0 0 0.15 0"/>
<feBlend mode="normal" in2="BackgroundImageFix" result="effect1_dropShadow_1_11112"/>
<feBlend mode="normal" in="SourceGraphic" in2="effect1_dropShadow_1_11112" result="shape"/>
</filter>
<filter id="filter1_d_1_11112" x="0.5" y="0.442383" width="112" height="112" filterUnits="userSpaceOnUse" color-interpolation-filters="sRGB">
<feFlood flood-opacity="0" result="BackgroundImageFix"/>
<feColorMatrix in="SourceAlpha" type="matrix" values="0 0 0 0 0 0 0 0 0 0 0 0 0 0 0 0 0 0 127 0" result="hardAlpha"/>
<feOffset dy="10"/>
<feGaussianBlur stdDeviation="10"/>
<feColorMatrix type="matrix" values="0 0 0 0 0.929412 0 0 0 0 0.752941 0 0 0 0 0.470588 0 0 0 0.2 0"/>
<feBlend mode="normal" in2="BackgroundImageFix" result="effect1_dropShadow_1_11112"/>
<feBlend mode="normal" in="SourceGraphic" in2="effect1_dropShadow_1_11112" result="shape"/>
</filter>
</defs>
</svg>
